<mxfile host="Electron" agent="Mozilla/5.0 (Windows NT 10.0; Win64; x64) AppleWebKit/537.36 (KHTML, like Gecko) draw.io/26.2.2 Chrome/134.0.6998.178 Electron/35.1.2 Safari/537.36" version="26.2.2">
  <diagram name="Page-1" id="j1vBJxc2RjEBW7J9sQVq">
    <mxGraphModel dx="1355" dy="1359" grid="0" gridSize="10" guides="1" tooltips="1" connect="1" arrows="1" fold="1" page="0" pageScale="1" pageWidth="850" pageHeight="1100" math="0" shadow="0">
      <root>
        <mxCell id="0" />
        <mxCell id="1" parent="0" />
        <mxCell id="t2eCOnF7JoxN58FBNp2V-71" value="" style="group" parent="1" vertex="1" connectable="0">
          <mxGeometry x="-434" y="-424" width="356" height="255.00000000000006" as="geometry" />
        </mxCell>
        <mxCell id="t2eCOnF7JoxN58FBNp2V-1" value="&lt;font face=&quot;Lucida Console&quot; style=&quot;font-size: 15px;&quot;&gt;Salon&lt;/font&gt;" style="rounded=1;whiteSpace=wrap;html=1;" parent="t2eCOnF7JoxN58FBNp2V-71" vertex="1">
          <mxGeometry x="131" y="116" width="120" height="60" as="geometry" />
        </mxCell>
        <mxCell id="t2eCOnF7JoxN58FBNp2V-2" value="&lt;u&gt;&lt;font face=&quot;Courier New&quot;&gt;id&lt;/font&gt;&lt;/u&gt;" style="ellipse;whiteSpace=wrap;html=1;" parent="t2eCOnF7JoxN58FBNp2V-71" vertex="1">
          <mxGeometry x="127" y="214.33000000000004" width="61" height="40.67" as="geometry" />
        </mxCell>
        <mxCell id="t2eCOnF7JoxN58FBNp2V-3" value="&lt;font style=&quot;&quot; face=&quot;Courier New&quot;&gt;Name&lt;/font&gt;" style="ellipse;whiteSpace=wrap;html=1;" parent="t2eCOnF7JoxN58FBNp2V-71" vertex="1">
          <mxGeometry x="44" y="190" width="62" height="41.34" as="geometry" />
        </mxCell>
        <mxCell id="t2eCOnF7JoxN58FBNp2V-4" value="&lt;font style=&quot;&quot; face=&quot;Courier New&quot;&gt;Conatact_number&lt;/font&gt;" style="ellipse;whiteSpace=wrap;html=1;strokeWidth=2;" parent="t2eCOnF7JoxN58FBNp2V-71" vertex="1">
          <mxGeometry y="60" width="127" height="36" as="geometry" />
        </mxCell>
        <mxCell id="t2eCOnF7JoxN58FBNp2V-5" value="&lt;font style=&quot;&quot; face=&quot;Courier New&quot;&gt;Email&lt;/font&gt;" style="ellipse;whiteSpace=wrap;html=1;" parent="t2eCOnF7JoxN58FBNp2V-71" vertex="1">
          <mxGeometry x="204" width="61" height="40.67" as="geometry" />
        </mxCell>
        <mxCell id="t2eCOnF7JoxN58FBNp2V-6" value="&lt;font style=&quot;&quot; face=&quot;Courier New&quot;&gt;Location&lt;/font&gt;" style="ellipse;whiteSpace=wrap;html=1;strokeWidth=2;perimeterSpacing=0;strokeColor=default;" parent="t2eCOnF7JoxN58FBNp2V-71" vertex="1">
          <mxGeometry x="283" y="29.339999999999975" width="73" height="34" as="geometry" />
        </mxCell>
        <mxCell id="t2eCOnF7JoxN58FBNp2V-39" style="edgeStyle=orthogonalEdgeStyle;rounded=0;orthogonalLoop=1;jettySize=auto;html=1;fontSize=12;startSize=8;endSize=8;strokeColor=default;align=center;verticalAlign=middle;fontFamily=Helvetica;fontColor=default;labelBackgroundColor=default;elbow=vertical;startFill=0;endArrow=none;curved=1;" parent="t2eCOnF7JoxN58FBNp2V-71" source="t2eCOnF7JoxN58FBNp2V-7" target="t2eCOnF7JoxN58FBNp2V-1" edge="1">
          <mxGeometry relative="1" as="geometry" />
        </mxCell>
        <mxCell id="t2eCOnF7JoxN58FBNp2V-7" value="&lt;font style=&quot;&quot; face=&quot;Courier New&quot;&gt;Description&lt;/font&gt;" style="ellipse;whiteSpace=wrap;html=1;" parent="t2eCOnF7JoxN58FBNp2V-71" vertex="1">
          <mxGeometry y="132" width="93" height="32" as="geometry" />
        </mxCell>
        <mxCell id="t2eCOnF7JoxN58FBNp2V-8" value="&lt;font style=&quot;&quot; face=&quot;Courier New&quot;&gt;Open_hours&lt;/font&gt;" style="ellipse;whiteSpace=wrap;html=1;" parent="t2eCOnF7JoxN58FBNp2V-71" vertex="1">
          <mxGeometry x="77" y="4.339999999999975" width="93" height="32" as="geometry" />
        </mxCell>
        <mxCell id="t2eCOnF7JoxN58FBNp2V-37" style="edgeStyle=elbowEdgeStyle;rounded=0;orthogonalLoop=1;jettySize=auto;html=1;entryX=0.326;entryY=0.976;entryDx=0;entryDy=0;entryPerimeter=0;fontSize=12;elbow=vertical;endArrow=none;startFill=0;curved=1;" parent="t2eCOnF7JoxN58FBNp2V-71" source="t2eCOnF7JoxN58FBNp2V-2" target="t2eCOnF7JoxN58FBNp2V-1" edge="1">
          <mxGeometry relative="1" as="geometry" />
        </mxCell>
        <mxCell id="t2eCOnF7JoxN58FBNp2V-38" style="edgeStyle=elbowEdgeStyle;rounded=0;orthogonalLoop=1;jettySize=auto;html=1;entryX=0.096;entryY=0.965;entryDx=0;entryDy=0;entryPerimeter=0;fontSize=12;startSize=8;endSize=8;endArrow=none;startFill=0;elbow=vertical;curved=1;" parent="t2eCOnF7JoxN58FBNp2V-71" source="t2eCOnF7JoxN58FBNp2V-3" target="t2eCOnF7JoxN58FBNp2V-1" edge="1">
          <mxGeometry relative="1" as="geometry" />
        </mxCell>
        <mxCell id="t2eCOnF7JoxN58FBNp2V-41" style="edgeStyle=orthogonalEdgeStyle;rounded=0;orthogonalLoop=1;jettySize=auto;html=1;entryX=0.418;entryY=-0.001;entryDx=0;entryDy=0;entryPerimeter=0;fontSize=12;startSize=8;endSize=8;strokeColor=default;align=center;verticalAlign=middle;fontFamily=Helvetica;fontColor=default;labelBackgroundColor=default;elbow=vertical;startFill=0;endArrow=none;curved=1;" parent="t2eCOnF7JoxN58FBNp2V-71" source="t2eCOnF7JoxN58FBNp2V-8" target="t2eCOnF7JoxN58FBNp2V-1" edge="1">
          <mxGeometry relative="1" as="geometry" />
        </mxCell>
        <mxCell id="t2eCOnF7JoxN58FBNp2V-42" style="edgeStyle=orthogonalEdgeStyle;rounded=0;orthogonalLoop=1;jettySize=auto;html=1;entryX=0.653;entryY=0.034;entryDx=0;entryDy=0;entryPerimeter=0;fontSize=12;startSize=8;endSize=8;strokeColor=default;align=center;verticalAlign=middle;fontFamily=Helvetica;fontColor=default;labelBackgroundColor=default;elbow=vertical;startFill=0;endArrow=none;curved=1;" parent="t2eCOnF7JoxN58FBNp2V-71" source="t2eCOnF7JoxN58FBNp2V-5" target="t2eCOnF7JoxN58FBNp2V-1" edge="1">
          <mxGeometry relative="1" as="geometry" />
        </mxCell>
        <mxCell id="t2eCOnF7JoxN58FBNp2V-43" style="edgeStyle=elbowEdgeStyle;rounded=0;orthogonalLoop=1;jettySize=auto;html=1;entryX=0.992;entryY=0.091;entryDx=0;entryDy=0;entryPerimeter=0;fontSize=12;startSize=8;endSize=8;strokeColor=default;align=center;verticalAlign=middle;fontFamily=Helvetica;fontColor=default;labelBackgroundColor=default;elbow=vertical;startFill=0;endArrow=none;curved=1;" parent="t2eCOnF7JoxN58FBNp2V-71" source="t2eCOnF7JoxN58FBNp2V-6" target="t2eCOnF7JoxN58FBNp2V-1" edge="1">
          <mxGeometry relative="1" as="geometry" />
        </mxCell>
        <mxCell id="t2eCOnF7JoxN58FBNp2V-45" style="edgeStyle=elbowEdgeStyle;rounded=0;orthogonalLoop=1;jettySize=auto;html=1;entryX=0.078;entryY=0.034;entryDx=0;entryDy=0;entryPerimeter=0;fontSize=12;startSize=8;endSize=8;strokeColor=default;align=center;verticalAlign=middle;fontFamily=Helvetica;fontColor=default;labelBackgroundColor=default;elbow=vertical;startFill=0;endArrow=none;curved=1;" parent="t2eCOnF7JoxN58FBNp2V-71" source="t2eCOnF7JoxN58FBNp2V-4" target="t2eCOnF7JoxN58FBNp2V-1" edge="1">
          <mxGeometry relative="1" as="geometry" />
        </mxCell>
        <mxCell id="t2eCOnF7JoxN58FBNp2V-72" value="" style="group" parent="1" vertex="1" connectable="0">
          <mxGeometry x="136" y="-695" width="486" height="175" as="geometry" />
        </mxCell>
        <mxCell id="t2eCOnF7JoxN58FBNp2V-16" value="&lt;font face=&quot;Lucida Console&quot; style=&quot;font-size: 15px;&quot;&gt;Employee&lt;/font&gt;" style="rounded=1;whiteSpace=wrap;html=1;" parent="t2eCOnF7JoxN58FBNp2V-72" vertex="1">
          <mxGeometry x="184" y="115" width="120" height="60" as="geometry" />
        </mxCell>
        <mxCell id="t2eCOnF7JoxN58FBNp2V-17" value="&lt;u&gt;&lt;font face=&quot;Courier New&quot;&gt;emp_id&lt;/font&gt;&lt;/u&gt;" style="ellipse;whiteSpace=wrap;html=1;" parent="t2eCOnF7JoxN58FBNp2V-72" vertex="1">
          <mxGeometry x="46" y="132" width="61" height="40.67" as="geometry" />
        </mxCell>
        <mxCell id="t2eCOnF7JoxN58FBNp2V-52" style="edgeStyle=orthogonalEdgeStyle;rounded=0;orthogonalLoop=1;jettySize=auto;html=1;fontSize=12;startSize=8;endSize=8;curved=1;strokeColor=default;align=center;verticalAlign=middle;fontFamily=Helvetica;fontColor=default;labelBackgroundColor=default;elbow=vertical;startFill=0;endArrow=none;" parent="t2eCOnF7JoxN58FBNp2V-72" source="t2eCOnF7JoxN58FBNp2V-18" target="t2eCOnF7JoxN58FBNp2V-19" edge="1">
          <mxGeometry relative="1" as="geometry" />
        </mxCell>
        <mxCell id="t2eCOnF7JoxN58FBNp2V-18" value="&lt;font style=&quot;&quot; face=&quot;Courier New&quot;&gt;F_Name&lt;/font&gt;" style="ellipse;whiteSpace=wrap;html=1;" parent="t2eCOnF7JoxN58FBNp2V-72" vertex="1">
          <mxGeometry y="71" width="61" height="40.67" as="geometry" />
        </mxCell>
        <mxCell id="t2eCOnF7JoxN58FBNp2V-19" value="&lt;font style=&quot;&quot; face=&quot;Courier New&quot;&gt;Name&lt;/font&gt;" style="ellipse;whiteSpace=wrap;html=1;" parent="t2eCOnF7JoxN58FBNp2V-72" vertex="1">
          <mxGeometry x="90" y="71" width="61" height="40.67" as="geometry" />
        </mxCell>
        <mxCell id="t2eCOnF7JoxN58FBNp2V-20" value="&lt;font style=&quot;&quot; face=&quot;Courier New&quot;&gt;L_Name&lt;/font&gt;" style="ellipse;whiteSpace=wrap;html=1;" parent="t2eCOnF7JoxN58FBNp2V-72" vertex="1">
          <mxGeometry x="73" width="61" height="40.67" as="geometry" />
        </mxCell>
        <mxCell id="t2eCOnF7JoxN58FBNp2V-21" value="&lt;font style=&quot;&quot; face=&quot;Courier New&quot;&gt;Conatact_number&lt;/font&gt;" style="ellipse;whiteSpace=wrap;html=1;strokeWidth=2;" parent="t2eCOnF7JoxN58FBNp2V-72" vertex="1">
          <mxGeometry x="160" y="32" width="127" height="36" as="geometry" />
        </mxCell>
        <mxCell id="t2eCOnF7JoxN58FBNp2V-22" value="&lt;font style=&quot;&quot; face=&quot;Courier New&quot;&gt;Email&lt;/font&gt;" style="ellipse;whiteSpace=wrap;html=1;" parent="t2eCOnF7JoxN58FBNp2V-72" vertex="1">
          <mxGeometry x="324" y="24" width="61" height="40.67" as="geometry" />
        </mxCell>
        <mxCell id="t2eCOnF7JoxN58FBNp2V-23" value="&lt;font style=&quot;&quot; face=&quot;Courier New&quot;&gt;Expertise&lt;/font&gt;" style="ellipse;whiteSpace=wrap;html=1;" parent="t2eCOnF7JoxN58FBNp2V-72" vertex="1">
          <mxGeometry x="381" y="122" width="102" height="32" as="geometry" />
        </mxCell>
        <mxCell id="t2eCOnF7JoxN58FBNp2V-50" style="edgeStyle=orthogonalEdgeStyle;rounded=0;orthogonalLoop=1;jettySize=auto;html=1;entryX=1;entryY=0.5;entryDx=0;entryDy=0;fontSize=12;startSize=8;endSize=8;curved=1;strokeColor=default;align=center;verticalAlign=middle;fontFamily=Helvetica;fontColor=default;labelBackgroundColor=default;elbow=vertical;startFill=0;endArrow=none;" parent="t2eCOnF7JoxN58FBNp2V-72" source="t2eCOnF7JoxN58FBNp2V-24" target="t2eCOnF7JoxN58FBNp2V-16" edge="1">
          <mxGeometry relative="1" as="geometry" />
        </mxCell>
        <mxCell id="t2eCOnF7JoxN58FBNp2V-24" value="&lt;font style=&quot;&quot; face=&quot;Courier New&quot;&gt;Position&lt;/font&gt;" style="ellipse;whiteSpace=wrap;html=1;" parent="t2eCOnF7JoxN58FBNp2V-72" vertex="1">
          <mxGeometry x="384" y="68" width="102" height="32" as="geometry" />
        </mxCell>
        <mxCell id="t2eCOnF7JoxN58FBNp2V-46" style="edgeStyle=orthogonalEdgeStyle;rounded=0;orthogonalLoop=1;jettySize=auto;html=1;entryX=0.018;entryY=0.625;entryDx=0;entryDy=0;entryPerimeter=0;fontSize=12;startSize=8;endSize=8;strokeColor=default;align=center;verticalAlign=middle;fontFamily=Helvetica;fontColor=default;labelBackgroundColor=default;elbow=vertical;startFill=0;endArrow=none;curved=1;" parent="t2eCOnF7JoxN58FBNp2V-72" source="t2eCOnF7JoxN58FBNp2V-17" target="t2eCOnF7JoxN58FBNp2V-16" edge="1">
          <mxGeometry relative="1" as="geometry" />
        </mxCell>
        <mxCell id="t2eCOnF7JoxN58FBNp2V-47" style="edgeStyle=orthogonalEdgeStyle;rounded=0;orthogonalLoop=1;jettySize=auto;html=1;entryX=0.018;entryY=0.12;entryDx=0;entryDy=0;entryPerimeter=0;fontSize=12;startSize=8;endSize=8;strokeColor=default;align=center;verticalAlign=middle;fontFamily=Helvetica;fontColor=default;labelBackgroundColor=default;elbow=vertical;startFill=0;endArrow=none;curved=1;" parent="t2eCOnF7JoxN58FBNp2V-72" source="t2eCOnF7JoxN58FBNp2V-19" target="t2eCOnF7JoxN58FBNp2V-16" edge="1">
          <mxGeometry relative="1" as="geometry" />
        </mxCell>
        <mxCell id="t2eCOnF7JoxN58FBNp2V-48" style="edgeStyle=orthogonalEdgeStyle;rounded=0;orthogonalLoop=1;jettySize=auto;html=1;entryX=0.328;entryY=0.039;entryDx=0;entryDy=0;entryPerimeter=0;fontSize=12;startSize=8;endSize=8;strokeColor=default;align=center;verticalAlign=middle;fontFamily=Helvetica;fontColor=default;labelBackgroundColor=default;elbow=vertical;startFill=0;endArrow=none;curved=1;" parent="t2eCOnF7JoxN58FBNp2V-72" source="t2eCOnF7JoxN58FBNp2V-21" target="t2eCOnF7JoxN58FBNp2V-16" edge="1">
          <mxGeometry relative="1" as="geometry" />
        </mxCell>
        <mxCell id="t2eCOnF7JoxN58FBNp2V-49" style="edgeStyle=orthogonalEdgeStyle;rounded=0;orthogonalLoop=1;jettySize=auto;html=1;entryX=0.972;entryY=0.131;entryDx=0;entryDy=0;entryPerimeter=0;fontSize=12;startSize=8;endSize=8;curved=1;strokeColor=default;align=center;verticalAlign=middle;fontFamily=Helvetica;fontColor=default;labelBackgroundColor=default;elbow=vertical;startFill=0;endArrow=none;" parent="t2eCOnF7JoxN58FBNp2V-72" source="t2eCOnF7JoxN58FBNp2V-22" target="t2eCOnF7JoxN58FBNp2V-16" edge="1">
          <mxGeometry relative="1" as="geometry" />
        </mxCell>
        <mxCell id="t2eCOnF7JoxN58FBNp2V-51" style="edgeStyle=orthogonalEdgeStyle;rounded=0;orthogonalLoop=1;jettySize=auto;html=1;entryX=0.983;entryY=0.855;entryDx=0;entryDy=0;entryPerimeter=0;fontSize=12;startSize=8;endSize=8;strokeColor=default;align=center;verticalAlign=middle;fontFamily=Helvetica;fontColor=default;labelBackgroundColor=default;elbow=vertical;startFill=0;endArrow=none;curved=1;" parent="t2eCOnF7JoxN58FBNp2V-72" source="t2eCOnF7JoxN58FBNp2V-23" target="t2eCOnF7JoxN58FBNp2V-16" edge="1">
          <mxGeometry relative="1" as="geometry" />
        </mxCell>
        <mxCell id="t2eCOnF7JoxN58FBNp2V-53" style="edgeStyle=orthogonalEdgeStyle;rounded=0;orthogonalLoop=1;jettySize=auto;html=1;entryX=0.23;entryY=0.156;entryDx=0;entryDy=0;entryPerimeter=0;fontSize=12;startSize=8;endSize=8;strokeColor=default;align=center;verticalAlign=middle;fontFamily=Helvetica;fontColor=default;labelBackgroundColor=default;elbow=vertical;startFill=0;endArrow=none;curved=1;" parent="t2eCOnF7JoxN58FBNp2V-72" source="t2eCOnF7JoxN58FBNp2V-20" target="t2eCOnF7JoxN58FBNp2V-19" edge="1">
          <mxGeometry relative="1" as="geometry" />
        </mxCell>
        <mxCell id="t2eCOnF7JoxN58FBNp2V-73" value="" style="group" parent="1" vertex="1" connectable="0">
          <mxGeometry x="271" y="70" width="379" height="207" as="geometry" />
        </mxCell>
        <mxCell id="t2eCOnF7JoxN58FBNp2V-9" value="&lt;font face=&quot;Lucida Console&quot; style=&quot;font-size: 15px;&quot;&gt;Customer&lt;/font&gt;" style="rounded=1;whiteSpace=wrap;html=1;" parent="t2eCOnF7JoxN58FBNp2V-73" vertex="1">
          <mxGeometry x="158" width="120" height="60" as="geometry" />
        </mxCell>
        <mxCell id="t2eCOnF7JoxN58FBNp2V-10" value="&lt;u&gt;&lt;font face=&quot;Courier New&quot;&gt;cus_id&lt;/font&gt;&lt;/u&gt;" style="ellipse;whiteSpace=wrap;html=1;" parent="t2eCOnF7JoxN58FBNp2V-73" vertex="1">
          <mxGeometry x="318" y="67.33" width="61" height="40.67" as="geometry" />
        </mxCell>
        <mxCell id="t2eCOnF7JoxN58FBNp2V-11" value="&lt;font style=&quot;&quot; face=&quot;Courier New&quot;&gt;Name&lt;/font&gt;" style="ellipse;whiteSpace=wrap;html=1;" parent="t2eCOnF7JoxN58FBNp2V-73" vertex="1">
          <mxGeometry x="220.5" y="95.33" width="61" height="40.67" as="geometry" />
        </mxCell>
        <mxCell id="t2eCOnF7JoxN58FBNp2V-68" style="edgeStyle=orthogonalEdgeStyle;rounded=0;orthogonalLoop=1;jettySize=auto;html=1;fontSize=12;startSize=8;endSize=8;strokeColor=default;align=center;verticalAlign=middle;fontFamily=Helvetica;fontColor=default;labelBackgroundColor=default;elbow=vertical;startFill=0;endArrow=none;curved=1;" parent="t2eCOnF7JoxN58FBNp2V-73" source="t2eCOnF7JoxN58FBNp2V-12" target="t2eCOnF7JoxN58FBNp2V-11" edge="1">
          <mxGeometry relative="1" as="geometry" />
        </mxCell>
        <mxCell id="t2eCOnF7JoxN58FBNp2V-12" value="&lt;font style=&quot;&quot; face=&quot;Courier New&quot;&gt;F_Name&lt;/font&gt;" style="ellipse;whiteSpace=wrap;html=1;" parent="t2eCOnF7JoxN58FBNp2V-73" vertex="1">
          <mxGeometry x="268" y="166.32999999999998" width="61" height="40.67" as="geometry" />
        </mxCell>
        <mxCell id="t2eCOnF7JoxN58FBNp2V-13" value="&lt;font style=&quot;&quot; face=&quot;Courier New&quot;&gt;L_Name&lt;/font&gt;" style="ellipse;whiteSpace=wrap;html=1;" parent="t2eCOnF7JoxN58FBNp2V-73" vertex="1">
          <mxGeometry x="159.5" y="166.32999999999998" width="61" height="40.67" as="geometry" />
        </mxCell>
        <mxCell id="t2eCOnF7JoxN58FBNp2V-14" value="&lt;font style=&quot;&quot; face=&quot;Courier New&quot;&gt;Conatact_number&lt;/font&gt;" style="ellipse;whiteSpace=wrap;html=1;strokeWidth=2;" parent="t2eCOnF7JoxN58FBNp2V-73" vertex="1">
          <mxGeometry y="52.33" width="127" height="36" as="geometry" />
        </mxCell>
        <mxCell id="t2eCOnF7JoxN58FBNp2V-15" value="&lt;font style=&quot;&quot; face=&quot;Courier New&quot;&gt;Email&lt;/font&gt;" style="ellipse;whiteSpace=wrap;html=1;" parent="t2eCOnF7JoxN58FBNp2V-73" vertex="1">
          <mxGeometry x="127" y="95.33000000000001" width="61" height="40.67" as="geometry" />
        </mxCell>
        <mxCell id="t2eCOnF7JoxN58FBNp2V-65" style="edgeStyle=orthogonalEdgeStyle;rounded=0;orthogonalLoop=1;jettySize=auto;html=1;entryX=1.006;entryY=0.425;entryDx=0;entryDy=0;entryPerimeter=0;fontSize=12;startSize=8;endSize=8;strokeColor=default;align=center;verticalAlign=middle;fontFamily=Helvetica;fontColor=default;labelBackgroundColor=default;elbow=vertical;startFill=0;endArrow=none;curved=1;" parent="t2eCOnF7JoxN58FBNp2V-73" source="t2eCOnF7JoxN58FBNp2V-10" target="t2eCOnF7JoxN58FBNp2V-9" edge="1">
          <mxGeometry relative="1" as="geometry" />
        </mxCell>
        <mxCell id="t2eCOnF7JoxN58FBNp2V-66" style="edgeStyle=orthogonalEdgeStyle;rounded=0;orthogonalLoop=1;jettySize=auto;html=1;entryX=0.787;entryY=1.025;entryDx=0;entryDy=0;entryPerimeter=0;fontSize=12;startSize=8;endSize=8;strokeColor=default;align=center;verticalAlign=middle;fontFamily=Helvetica;fontColor=default;labelBackgroundColor=default;elbow=vertical;startFill=0;endArrow=none;curved=1;" parent="t2eCOnF7JoxN58FBNp2V-73" source="t2eCOnF7JoxN58FBNp2V-11" target="t2eCOnF7JoxN58FBNp2V-9" edge="1">
          <mxGeometry relative="1" as="geometry" />
        </mxCell>
        <mxCell id="t2eCOnF7JoxN58FBNp2V-67" style="edgeStyle=orthogonalEdgeStyle;rounded=0;orthogonalLoop=1;jettySize=auto;html=1;entryX=0.252;entryY=0.966;entryDx=0;entryDy=0;entryPerimeter=0;fontSize=12;startSize=8;endSize=8;strokeColor=default;align=center;verticalAlign=middle;fontFamily=Helvetica;fontColor=default;labelBackgroundColor=default;elbow=vertical;startFill=0;endArrow=none;curved=1;" parent="t2eCOnF7JoxN58FBNp2V-73" source="t2eCOnF7JoxN58FBNp2V-13" target="t2eCOnF7JoxN58FBNp2V-11" edge="1">
          <mxGeometry relative="1" as="geometry" />
        </mxCell>
        <mxCell id="t2eCOnF7JoxN58FBNp2V-69" style="edgeStyle=orthogonalEdgeStyle;rounded=0;orthogonalLoop=1;jettySize=auto;html=1;entryX=0.301;entryY=1.034;entryDx=0;entryDy=0;entryPerimeter=0;fontSize=12;startSize=8;endSize=8;strokeColor=default;align=center;verticalAlign=middle;fontFamily=Helvetica;fontColor=default;labelBackgroundColor=default;elbow=vertical;startFill=0;endArrow=none;curved=1;" parent="t2eCOnF7JoxN58FBNp2V-73" source="t2eCOnF7JoxN58FBNp2V-15" target="t2eCOnF7JoxN58FBNp2V-9" edge="1">
          <mxGeometry relative="1" as="geometry" />
        </mxCell>
        <mxCell id="t2eCOnF7JoxN58FBNp2V-70" style="edgeStyle=orthogonalEdgeStyle;rounded=0;orthogonalLoop=1;jettySize=auto;html=1;entryX=0.02;entryY=0.605;entryDx=0;entryDy=0;entryPerimeter=0;fontSize=12;startSize=8;endSize=8;strokeColor=default;align=center;verticalAlign=middle;fontFamily=Helvetica;fontColor=default;labelBackgroundColor=default;elbow=vertical;startFill=0;endArrow=none;curved=1;" parent="t2eCOnF7JoxN58FBNp2V-73" source="t2eCOnF7JoxN58FBNp2V-14" target="t2eCOnF7JoxN58FBNp2V-9" edge="1">
          <mxGeometry relative="1" as="geometry" />
        </mxCell>
        <mxCell id="t2eCOnF7JoxN58FBNp2V-74" value="" style="group" parent="1" vertex="1" connectable="0">
          <mxGeometry x="699" y="-191" width="320" height="196" as="geometry" />
        </mxCell>
        <mxCell id="t2eCOnF7JoxN58FBNp2V-31" value="&lt;font face=&quot;Lucida Console&quot; style=&quot;font-size: 15px;&quot;&gt;Appoinment&lt;/font&gt;" style="rounded=1;whiteSpace=wrap;html=1;" parent="t2eCOnF7JoxN58FBNp2V-74" vertex="1">
          <mxGeometry y="47" width="120" height="60" as="geometry" />
        </mxCell>
        <mxCell id="t2eCOnF7JoxN58FBNp2V-32" value="&lt;u&gt;&lt;font face=&quot;Courier New&quot;&gt;id&lt;/font&gt;&lt;/u&gt;" style="ellipse;whiteSpace=wrap;html=1;" parent="t2eCOnF7JoxN58FBNp2V-74" vertex="1">
          <mxGeometry x="214" width="65" height="33.67" as="geometry" />
        </mxCell>
        <mxCell id="t2eCOnF7JoxN58FBNp2V-33" value="&lt;font style=&quot;&quot; face=&quot;Courier New&quot;&gt;date&amp;amp;time&lt;/font&gt;" style="ellipse;whiteSpace=wrap;html=1;" parent="t2eCOnF7JoxN58FBNp2V-74" vertex="1">
          <mxGeometry x="228" y="53" width="92" height="26.67" as="geometry" />
        </mxCell>
        <mxCell id="t2eCOnF7JoxN58FBNp2V-61" style="edgeStyle=orthogonalEdgeStyle;rounded=0;orthogonalLoop=1;jettySize=auto;html=1;fontSize=12;startSize=8;endSize=8;strokeColor=default;align=center;verticalAlign=middle;fontFamily=Helvetica;fontColor=default;labelBackgroundColor=default;elbow=vertical;startFill=0;endArrow=none;curved=1;" parent="t2eCOnF7JoxN58FBNp2V-74" source="t2eCOnF7JoxN58FBNp2V-34" target="t2eCOnF7JoxN58FBNp2V-31" edge="1">
          <mxGeometry relative="1" as="geometry" />
        </mxCell>
        <mxCell id="t2eCOnF7JoxN58FBNp2V-34" value="&lt;font style=&quot;&quot; face=&quot;Courier New&quot;&gt;Status&lt;/font&gt;" style="ellipse;whiteSpace=wrap;html=1;" parent="t2eCOnF7JoxN58FBNp2V-74" vertex="1">
          <mxGeometry x="196" y="103.67000000000002" width="92" height="26.67" as="geometry" />
        </mxCell>
        <mxCell id="t2eCOnF7JoxN58FBNp2V-35" value="&lt;font style=&quot;&quot; face=&quot;Courier New&quot;&gt;Payment_Status&lt;/font&gt;" style="ellipse;whiteSpace=wrap;html=1;" parent="t2eCOnF7JoxN58FBNp2V-74" vertex="1">
          <mxGeometry x="134" y="149" width="138" height="31" as="geometry" />
        </mxCell>
        <mxCell id="t2eCOnF7JoxN58FBNp2V-36" value="&lt;font style=&quot;&quot; face=&quot;Courier New&quot;&gt;Duration&lt;/font&gt;" style="ellipse;whiteSpace=wrap;html=1;" parent="t2eCOnF7JoxN58FBNp2V-74" vertex="1">
          <mxGeometry x="28" y="159" width="94" height="37" as="geometry" />
        </mxCell>
        <mxCell id="t2eCOnF7JoxN58FBNp2V-59" style="edgeStyle=orthogonalEdgeStyle;rounded=0;orthogonalLoop=1;jettySize=auto;html=1;entryX=0.622;entryY=0.998;entryDx=0;entryDy=0;entryPerimeter=0;fontSize=12;startSize=8;endSize=8;strokeColor=default;align=center;verticalAlign=middle;fontFamily=Helvetica;fontColor=default;labelBackgroundColor=default;elbow=vertical;startFill=0;endArrow=none;curved=1;" parent="t2eCOnF7JoxN58FBNp2V-74" source="t2eCOnF7JoxN58FBNp2V-36" target="t2eCOnF7JoxN58FBNp2V-31" edge="1">
          <mxGeometry relative="1" as="geometry" />
        </mxCell>
        <mxCell id="t2eCOnF7JoxN58FBNp2V-62" style="edgeStyle=orthogonalEdgeStyle;rounded=0;orthogonalLoop=1;jettySize=auto;html=1;entryX=0.991;entryY=0.332;entryDx=0;entryDy=0;entryPerimeter=0;fontSize=12;startSize=8;endSize=8;strokeColor=default;align=center;verticalAlign=middle;fontFamily=Helvetica;fontColor=default;labelBackgroundColor=default;elbow=vertical;startFill=0;endArrow=none;curved=1;" parent="t2eCOnF7JoxN58FBNp2V-74" source="t2eCOnF7JoxN58FBNp2V-33" target="t2eCOnF7JoxN58FBNp2V-31" edge="1">
          <mxGeometry relative="1" as="geometry" />
        </mxCell>
        <mxCell id="t2eCOnF7JoxN58FBNp2V-63" style="edgeStyle=orthogonalEdgeStyle;rounded=0;orthogonalLoop=1;jettySize=auto;html=1;entryX=0.82;entryY=-0.017;entryDx=0;entryDy=0;entryPerimeter=0;fontSize=12;startSize=8;endSize=8;strokeColor=default;align=center;verticalAlign=middle;fontFamily=Helvetica;fontColor=default;labelBackgroundColor=default;elbow=vertical;startFill=0;endArrow=none;curved=1;" parent="t2eCOnF7JoxN58FBNp2V-74" source="t2eCOnF7JoxN58FBNp2V-32" target="t2eCOnF7JoxN58FBNp2V-31" edge="1">
          <mxGeometry relative="1" as="geometry" />
        </mxCell>
        <mxCell id="t2eCOnF7JoxN58FBNp2V-64" style="edgeStyle=orthogonalEdgeStyle;rounded=0;orthogonalLoop=1;jettySize=auto;html=1;entryX=0.943;entryY=0.975;entryDx=0;entryDy=0;entryPerimeter=0;fontSize=12;startSize=8;endSize=8;strokeColor=default;align=center;verticalAlign=middle;fontFamily=Helvetica;fontColor=default;labelBackgroundColor=default;elbow=vertical;startFill=0;endArrow=none;curved=1;" parent="t2eCOnF7JoxN58FBNp2V-74" source="t2eCOnF7JoxN58FBNp2V-35" target="t2eCOnF7JoxN58FBNp2V-31" edge="1">
          <mxGeometry relative="1" as="geometry" />
        </mxCell>
        <mxCell id="t2eCOnF7JoxN58FBNp2V-75" value="" style="group" parent="1" vertex="1" connectable="0">
          <mxGeometry x="835" y="-574" width="315" height="178.16000000000003" as="geometry" />
        </mxCell>
        <mxCell id="t2eCOnF7JoxN58FBNp2V-25" value="&lt;font face=&quot;Lucida Console&quot; style=&quot;font-size: 15px;&quot;&gt;Service&lt;/font&gt;" style="rounded=1;whiteSpace=wrap;html=1;" parent="t2eCOnF7JoxN58FBNp2V-75" vertex="1">
          <mxGeometry x="7" y="113" width="120" height="60" as="geometry" />
        </mxCell>
        <mxCell id="t2eCOnF7JoxN58FBNp2V-26" value="&lt;u&gt;&lt;font face=&quot;Courier New&quot;&gt;id&lt;/font&gt;&lt;/u&gt;" style="ellipse;whiteSpace=wrap;html=1;" parent="t2eCOnF7JoxN58FBNp2V-75" vertex="1">
          <mxGeometry x="41" y="11" width="65" height="33.67" as="geometry" />
        </mxCell>
        <mxCell id="t2eCOnF7JoxN58FBNp2V-27" value="&lt;font style=&quot;&quot; face=&quot;Courier New&quot;&gt;Name&lt;/font&gt;" style="ellipse;whiteSpace=wrap;html=1;" parent="t2eCOnF7JoxN58FBNp2V-75" vertex="1">
          <mxGeometry x="150" width="61" height="40.67" as="geometry" />
        </mxCell>
        <mxCell id="t2eCOnF7JoxN58FBNp2V-28" value="&lt;font style=&quot;&quot; face=&quot;Courier New&quot;&gt;Description&lt;/font&gt;" style="ellipse;whiteSpace=wrap;html=1;" parent="t2eCOnF7JoxN58FBNp2V-75" vertex="1">
          <mxGeometry x="206" y="35.670000000000016" width="100" height="38" as="geometry" />
        </mxCell>
        <mxCell id="t2eCOnF7JoxN58FBNp2V-57" style="edgeStyle=orthogonalEdgeStyle;rounded=0;orthogonalLoop=1;jettySize=auto;html=1;fontSize=12;startSize=8;endSize=8;strokeColor=default;align=center;verticalAlign=middle;fontFamily=Helvetica;fontColor=default;labelBackgroundColor=default;elbow=vertical;startFill=0;endArrow=none;curved=1;" parent="t2eCOnF7JoxN58FBNp2V-75" source="t2eCOnF7JoxN58FBNp2V-29" target="t2eCOnF7JoxN58FBNp2V-25" edge="1">
          <mxGeometry relative="1" as="geometry" />
        </mxCell>
        <mxCell id="t2eCOnF7JoxN58FBNp2V-29" value="&lt;font style=&quot;&quot; face=&quot;Courier New&quot;&gt;Duration&lt;/font&gt;" style="ellipse;whiteSpace=wrap;html=1;" parent="t2eCOnF7JoxN58FBNp2V-75" vertex="1">
          <mxGeometry x="221" y="93" width="94" height="37" as="geometry" />
        </mxCell>
        <mxCell id="t2eCOnF7JoxN58FBNp2V-58" style="edgeStyle=orthogonalEdgeStyle;rounded=0;orthogonalLoop=1;jettySize=auto;html=1;fontSize=12;startSize=8;endSize=8;strokeColor=default;align=center;verticalAlign=middle;fontFamily=Helvetica;fontColor=default;labelBackgroundColor=default;elbow=vertical;startFill=0;endArrow=none;entryX=1.002;entryY=0.852;entryDx=0;entryDy=0;entryPerimeter=0;curved=1;" parent="t2eCOnF7JoxN58FBNp2V-75" source="t2eCOnF7JoxN58FBNp2V-30" target="t2eCOnF7JoxN58FBNp2V-25" edge="1">
          <mxGeometry relative="1" as="geometry" />
        </mxCell>
        <mxCell id="t2eCOnF7JoxN58FBNp2V-30" value="&lt;font style=&quot;&quot; face=&quot;Courier New&quot;&gt;Price&lt;/font&gt;" style="ellipse;whiteSpace=wrap;html=1;" parent="t2eCOnF7JoxN58FBNp2V-75" vertex="1">
          <mxGeometry x="201.5" y="149" width="83" height="29.16" as="geometry" />
        </mxCell>
        <mxCell id="t2eCOnF7JoxN58FBNp2V-54" style="edgeStyle=orthogonalEdgeStyle;rounded=0;orthogonalLoop=1;jettySize=auto;html=1;entryX=0.559;entryY=0.036;entryDx=0;entryDy=0;entryPerimeter=0;fontSize=12;startSize=8;endSize=8;strokeColor=default;align=center;verticalAlign=middle;fontFamily=Helvetica;fontColor=default;labelBackgroundColor=default;elbow=vertical;startFill=0;endArrow=none;curved=1;" parent="t2eCOnF7JoxN58FBNp2V-75" source="t2eCOnF7JoxN58FBNp2V-26" target="t2eCOnF7JoxN58FBNp2V-25" edge="1">
          <mxGeometry relative="1" as="geometry" />
        </mxCell>
        <mxCell id="t2eCOnF7JoxN58FBNp2V-55" style="edgeStyle=orthogonalEdgeStyle;rounded=0;orthogonalLoop=1;jettySize=auto;html=1;entryX=0.876;entryY=0.013;entryDx=0;entryDy=0;entryPerimeter=0;fontSize=12;startSize=8;endSize=8;curved=1;strokeColor=default;align=center;verticalAlign=middle;fontFamily=Helvetica;fontColor=default;labelBackgroundColor=default;elbow=vertical;startFill=0;endArrow=none;" parent="t2eCOnF7JoxN58FBNp2V-75" source="t2eCOnF7JoxN58FBNp2V-27" target="t2eCOnF7JoxN58FBNp2V-25" edge="1">
          <mxGeometry relative="1" as="geometry" />
        </mxCell>
        <mxCell id="t2eCOnF7JoxN58FBNp2V-56" style="edgeStyle=orthogonalEdgeStyle;rounded=0;orthogonalLoop=1;jettySize=auto;html=1;entryX=0.991;entryY=0.14;entryDx=0;entryDy=0;entryPerimeter=0;fontSize=12;startSize=8;endSize=8;strokeColor=default;align=center;verticalAlign=middle;fontFamily=Helvetica;fontColor=default;labelBackgroundColor=default;elbow=vertical;startFill=0;endArrow=none;curved=1;" parent="t2eCOnF7JoxN58FBNp2V-75" source="t2eCOnF7JoxN58FBNp2V-28" target="t2eCOnF7JoxN58FBNp2V-25" edge="1">
          <mxGeometry relative="1" as="geometry" />
        </mxCell>
        <mxCell id="t2eCOnF7JoxN58FBNp2V-78" style="edgeStyle=orthogonalEdgeStyle;rounded=0;orthogonalLoop=1;jettySize=auto;html=1;entryX=1;entryY=0.5;entryDx=0;entryDy=0;fontSize=12;startSize=8;endSize=8;endArrow=none;startFill=0;" parent="1" source="t2eCOnF7JoxN58FBNp2V-76" target="t2eCOnF7JoxN58FBNp2V-1" edge="1">
          <mxGeometry relative="1" as="geometry" />
        </mxCell>
        <mxCell id="t2eCOnF7JoxN58FBNp2V-79" value="1" style="edgeLabel;html=1;align=center;verticalAlign=middle;resizable=0;points=[];fontSize=12;" parent="t2eCOnF7JoxN58FBNp2V-78" vertex="1" connectable="0">
          <mxGeometry x="0.8993" y="1" relative="1" as="geometry">
            <mxPoint as="offset" />
          </mxGeometry>
        </mxCell>
        <mxCell id="t2eCOnF7JoxN58FBNp2V-76" value="&lt;font style=&quot;font-size: 20px;&quot; face=&quot;Courier New&quot;&gt;Work&lt;/font&gt;" style="rhombus;whiteSpace=wrap;html=1;" parent="1" vertex="1">
          <mxGeometry x="78" y="-440" width="138" height="65" as="geometry" />
        </mxCell>
        <mxCell id="t2eCOnF7JoxN58FBNp2V-77" style="edgeStyle=orthogonalEdgeStyle;rounded=0;orthogonalLoop=1;jettySize=auto;html=1;entryX=1;entryY=0.5;entryDx=0;entryDy=0;fontSize=12;startSize=8;endSize=8;endArrow=none;startFill=0;exitX=0.5;exitY=1;exitDx=0;exitDy=0;" parent="1" source="t2eCOnF7JoxN58FBNp2V-16" target="t2eCOnF7JoxN58FBNp2V-76" edge="1">
          <mxGeometry relative="1" as="geometry" />
        </mxCell>
        <mxCell id="t2eCOnF7JoxN58FBNp2V-80" value="m" style="edgeLabel;html=1;align=center;verticalAlign=middle;resizable=0;points=[];fontSize=12;" parent="t2eCOnF7JoxN58FBNp2V-77" vertex="1" connectable="0">
          <mxGeometry x="-0.9022" y="-1" relative="1" as="geometry">
            <mxPoint as="offset" />
          </mxGeometry>
        </mxCell>
        <mxCell id="t2eCOnF7JoxN58FBNp2V-83" style="edgeStyle=orthogonalEdgeStyle;rounded=0;orthogonalLoop=1;jettySize=auto;html=1;entryX=0;entryY=0.5;entryDx=0;entryDy=0;fontSize=12;startSize=8;endSize=8;strokeColor=default;align=center;verticalAlign=middle;fontFamily=Helvetica;fontColor=default;labelBackgroundColor=default;elbow=vertical;startFill=0;endArrow=none;exitX=0.5;exitY=0;exitDx=0;exitDy=0;" parent="1" source="t2eCOnF7JoxN58FBNp2V-81" target="t2eCOnF7JoxN58FBNp2V-31" edge="1">
          <mxGeometry relative="1" as="geometry" />
        </mxCell>
        <mxCell id="t2eCOnF7JoxN58FBNp2V-85" value="m" style="edgeLabel;html=1;align=center;verticalAlign=middle;resizable=0;points=[];fontSize=12;" parent="t2eCOnF7JoxN58FBNp2V-83" vertex="1" connectable="0">
          <mxGeometry x="0.8985" y="1" relative="1" as="geometry">
            <mxPoint as="offset" />
          </mxGeometry>
        </mxCell>
        <mxCell id="t2eCOnF7JoxN58FBNp2V-81" value="&lt;font style=&quot;font-size: 20px;&quot; face=&quot;Courier New&quot;&gt;Has&lt;/font&gt;" style="rhombus;whiteSpace=wrap;html=1;" parent="1" vertex="1">
          <mxGeometry x="420" y="-84" width="138" height="65" as="geometry" />
        </mxCell>
        <mxCell id="t2eCOnF7JoxN58FBNp2V-82" style="edgeStyle=orthogonalEdgeStyle;rounded=0;orthogonalLoop=1;jettySize=auto;html=1;entryX=0.5;entryY=1;entryDx=0;entryDy=0;fontSize=12;startSize=8;endSize=8;strokeColor=default;align=center;verticalAlign=middle;fontFamily=Helvetica;fontColor=default;labelBackgroundColor=default;elbow=vertical;startFill=0;endArrow=none;" parent="1" source="t2eCOnF7JoxN58FBNp2V-9" target="t2eCOnF7JoxN58FBNp2V-81" edge="1">
          <mxGeometry relative="1" as="geometry" />
        </mxCell>
        <mxCell id="t2eCOnF7JoxN58FBNp2V-84" value="1" style="edgeLabel;html=1;align=center;verticalAlign=middle;resizable=0;points=[];fontSize=12;" parent="t2eCOnF7JoxN58FBNp2V-82" vertex="1" connectable="0">
          <mxGeometry x="-0.68" y="-2" relative="1" as="geometry">
            <mxPoint as="offset" />
          </mxGeometry>
        </mxCell>
        <mxCell id="t2eCOnF7JoxN58FBNp2V-88" style="edgeStyle=orthogonalEdgeStyle;rounded=0;orthogonalLoop=1;jettySize=auto;html=1;exitX=1;exitY=0.5;exitDx=0;exitDy=0;entryX=0;entryY=0.5;entryDx=0;entryDy=0;fontSize=12;startSize=8;endSize=8;strokeColor=default;align=center;verticalAlign=middle;fontFamily=Helvetica;fontColor=default;labelBackgroundColor=default;elbow=vertical;startFill=0;endArrow=none;" parent="1" source="t2eCOnF7JoxN58FBNp2V-86" target="t2eCOnF7JoxN58FBNp2V-25" edge="1">
          <mxGeometry relative="1" as="geometry" />
        </mxCell>
        <mxCell id="t2eCOnF7JoxN58FBNp2V-93" value="m&lt;div&gt;1&lt;/div&gt;" style="edgeLabel;html=1;align=center;verticalAlign=middle;resizable=0;points=[];fontSize=12;" parent="t2eCOnF7JoxN58FBNp2V-88" vertex="1" connectable="0">
          <mxGeometry x="0.7903" relative="1" as="geometry">
            <mxPoint as="offset" />
          </mxGeometry>
        </mxCell>
        <mxCell id="t2eCOnF7JoxN58FBNp2V-86" value="&lt;font face=&quot;Courier New&quot;&gt;&lt;span style=&quot;font-size: 20px;&quot;&gt;Has&lt;/span&gt;&lt;/font&gt;" style="rhombus;whiteSpace=wrap;html=1;" parent="1" vertex="1">
          <mxGeometry x="535" y="-329" width="138" height="65" as="geometry" />
        </mxCell>
        <mxCell id="t2eCOnF7JoxN58FBNp2V-87" style="edgeStyle=orthogonalEdgeStyle;rounded=0;orthogonalLoop=1;jettySize=auto;html=1;entryX=0;entryY=0.5;entryDx=0;entryDy=0;fontSize=12;startSize=8;endSize=8;strokeColor=default;align=center;verticalAlign=middle;fontFamily=Helvetica;fontColor=default;labelBackgroundColor=default;elbow=vertical;startFill=0;endArrow=none;exitX=1;exitY=0.75;exitDx=0;exitDy=0;" parent="1" source="t2eCOnF7JoxN58FBNp2V-1" target="t2eCOnF7JoxN58FBNp2V-86" edge="1">
          <mxGeometry relative="1" as="geometry" />
        </mxCell>
        <mxCell id="t2eCOnF7JoxN58FBNp2V-89" value="1" style="edgeLabel;html=1;align=center;verticalAlign=middle;resizable=0;points=[];fontSize=12;" parent="t2eCOnF7JoxN58FBNp2V-87" vertex="1" connectable="0">
          <mxGeometry x="-0.8682" y="-2" relative="1" as="geometry">
            <mxPoint as="offset" />
          </mxGeometry>
        </mxCell>
        <mxCell id="t2eCOnF7JoxN58FBNp2V-91" style="edgeStyle=orthogonalEdgeStyle;rounded=0;orthogonalLoop=1;jettySize=auto;html=1;exitX=0;exitY=0.25;exitDx=0;exitDy=0;entryX=0.5;entryY=1;entryDx=0;entryDy=0;fontSize=12;startSize=8;endSize=8;strokeColor=default;align=center;verticalAlign=middle;fontFamily=Helvetica;fontColor=default;labelBackgroundColor=default;elbow=vertical;startFill=0;endArrow=none;" parent="1" source="t2eCOnF7JoxN58FBNp2V-31" target="t2eCOnF7JoxN58FBNp2V-86" edge="1">
          <mxGeometry relative="1" as="geometry" />
        </mxCell>
        <mxCell id="t2eCOnF7JoxN58FBNp2V-92" value="1" style="edgeLabel;html=1;align=center;verticalAlign=middle;resizable=0;points=[];fontSize=12;" parent="t2eCOnF7JoxN58FBNp2V-91" vertex="1" connectable="0">
          <mxGeometry x="-0.7739" relative="1" as="geometry">
            <mxPoint as="offset" />
          </mxGeometry>
        </mxCell>
        <mxCell id="t2eCOnF7JoxN58FBNp2V-96" style="edgeStyle=orthogonalEdgeStyle;rounded=0;orthogonalLoop=1;jettySize=auto;html=1;exitX=1;exitY=0.5;exitDx=0;exitDy=0;entryX=0;entryY=0.25;entryDx=0;entryDy=0;fontSize=12;startSize=8;endSize=8;strokeColor=default;align=center;verticalAlign=middle;fontFamily=Helvetica;fontColor=default;labelBackgroundColor=default;elbow=vertical;startFill=0;endArrow=none;" parent="1" source="t2eCOnF7JoxN58FBNp2V-94" target="t2eCOnF7JoxN58FBNp2V-25" edge="1">
          <mxGeometry relative="1" as="geometry">
            <Array as="points">
              <mxPoint x="738" y="-435" />
              <mxPoint x="738" y="-452" />
              <mxPoint x="842" y="-452" />
            </Array>
          </mxGeometry>
        </mxCell>
        <mxCell id="t2eCOnF7JoxN58FBNp2V-99" value="n" style="edgeLabel;html=1;align=center;verticalAlign=middle;resizable=0;points=[];fontSize=12;" parent="t2eCOnF7JoxN58FBNp2V-96" vertex="1" connectable="0">
          <mxGeometry x="0.7316" relative="1" as="geometry">
            <mxPoint as="offset" />
          </mxGeometry>
        </mxCell>
        <mxCell id="t2eCOnF7JoxN58FBNp2V-94" value="&lt;font face=&quot;Courier New&quot;&gt;&lt;span style=&quot;font-size: 20px;&quot;&gt;Provide&lt;/span&gt;&lt;/font&gt;" style="rhombus;whiteSpace=wrap;html=1;" parent="1" vertex="1">
          <mxGeometry x="535" y="-467" width="138" height="65" as="geometry" />
        </mxCell>
        <mxCell id="t2eCOnF7JoxN58FBNp2V-97" style="edgeStyle=orthogonalEdgeStyle;rounded=0;orthogonalLoop=1;jettySize=auto;html=1;exitX=0.634;exitY=0.999;exitDx=0;exitDy=0;entryX=0;entryY=0.5;entryDx=0;entryDy=0;fontSize=12;startSize=8;endSize=8;strokeColor=default;align=center;verticalAlign=middle;fontFamily=Helvetica;fontColor=default;labelBackgroundColor=default;elbow=vertical;startFill=0;endArrow=none;exitPerimeter=0;" parent="1" source="t2eCOnF7JoxN58FBNp2V-16" target="t2eCOnF7JoxN58FBNp2V-94" edge="1">
          <mxGeometry relative="1" as="geometry" />
        </mxCell>
        <mxCell id="t2eCOnF7JoxN58FBNp2V-98" value="m" style="edgeLabel;html=1;align=center;verticalAlign=middle;resizable=0;points=[];fontSize=12;" parent="t2eCOnF7JoxN58FBNp2V-97" vertex="1" connectable="0">
          <mxGeometry x="-0.8298" y="1" relative="1" as="geometry">
            <mxPoint as="offset" />
          </mxGeometry>
        </mxCell>
        <mxCell id="t2eCOnF7JoxN58FBNp2V-100" value="&lt;font style=&quot;&quot; face=&quot;Courier New&quot;&gt;Years&lt;/font&gt;" style="ellipse;whiteSpace=wrap;html=1;" parent="1" vertex="1">
          <mxGeometry x="78" y="-507.67" width="61" height="40.67" as="geometry" />
        </mxCell>
        <mxCell id="t2eCOnF7JoxN58FBNp2V-101" style="edgeStyle=orthogonalEdgeStyle;rounded=0;orthogonalLoop=1;jettySize=auto;html=1;entryX=0.5;entryY=0;entryDx=0;entryDy=0;fontSize=12;startSize=8;endSize=8;strokeColor=default;align=center;verticalAlign=middle;fontFamily=Helvetica;fontColor=default;labelBackgroundColor=default;elbow=vertical;startFill=0;endArrow=none;" parent="1" source="t2eCOnF7JoxN58FBNp2V-100" target="t2eCOnF7JoxN58FBNp2V-76" edge="1">
          <mxGeometry relative="1" as="geometry" />
        </mxCell>
        <mxCell id="t2eCOnF7JoxN58FBNp2V-125" style="edgeStyle=orthogonalEdgeStyle;rounded=0;orthogonalLoop=1;jettySize=auto;html=1;entryX=0.5;entryY=1;entryDx=0;entryDy=0;fontSize=12;startSize=8;endSize=8;strokeColor=default;align=center;verticalAlign=middle;fontFamily=Helvetica;fontColor=default;labelBackgroundColor=default;elbow=vertical;startFill=0;endArrow=none;" parent="1" source="t2eCOnF7JoxN58FBNp2V-103" target="t2eCOnF7JoxN58FBNp2V-124" edge="1">
          <mxGeometry relative="1" as="geometry" />
        </mxCell>
        <mxCell id="t2eCOnF7JoxN58FBNp2V-128" value="m" style="edgeLabel;html=1;align=center;verticalAlign=middle;resizable=0;points=[];fontSize=12;" parent="t2eCOnF7JoxN58FBNp2V-125" vertex="1" connectable="0">
          <mxGeometry x="-0.9119" relative="1" as="geometry">
            <mxPoint as="offset" />
          </mxGeometry>
        </mxCell>
        <mxCell id="t2eCOnF7JoxN58FBNp2V-103" value="&lt;font face=&quot;Lucida Console&quot; style=&quot;font-size: 15px;&quot;&gt;FeedBack&lt;/font&gt;" style="rounded=1;whiteSpace=wrap;html=1;" parent="1" vertex="1">
          <mxGeometry x="1240" y="-226" width="120" height="60" as="geometry" />
        </mxCell>
        <mxCell id="t2eCOnF7JoxN58FBNp2V-114" style="edgeStyle=orthogonalEdgeStyle;rounded=0;orthogonalLoop=1;jettySize=auto;html=1;entryX=1;entryY=0;entryDx=0;entryDy=0;fontSize=12;startSize=8;endSize=8;strokeColor=default;align=center;verticalAlign=middle;fontFamily=Helvetica;fontColor=default;labelBackgroundColor=default;elbow=vertical;startFill=0;endArrow=none;" parent="1" source="t2eCOnF7JoxN58FBNp2V-104" target="t2eCOnF7JoxN58FBNp2V-103" edge="1">
          <mxGeometry relative="1" as="geometry" />
        </mxCell>
        <mxCell id="t2eCOnF7JoxN58FBNp2V-104" value="&lt;u&gt;&lt;font face=&quot;Courier New&quot;&gt;id&lt;/font&gt;&lt;/u&gt;" style="ellipse;whiteSpace=wrap;html=1;" parent="1" vertex="1">
          <mxGeometry x="1394" y="-303" width="65" height="33.67" as="geometry" />
        </mxCell>
        <mxCell id="t2eCOnF7JoxN58FBNp2V-115" style="edgeStyle=orthogonalEdgeStyle;rounded=0;orthogonalLoop=1;jettySize=auto;html=1;fontSize=12;startSize=8;endSize=8;strokeColor=default;align=center;verticalAlign=middle;fontFamily=Helvetica;fontColor=default;labelBackgroundColor=default;elbow=vertical;startFill=0;endArrow=none;" parent="1" source="t2eCOnF7JoxN58FBNp2V-105" target="t2eCOnF7JoxN58FBNp2V-103" edge="1">
          <mxGeometry relative="1" as="geometry" />
        </mxCell>
        <mxCell id="t2eCOnF7JoxN58FBNp2V-105" value="&lt;font style=&quot;&quot; face=&quot;Courier New&quot;&gt;Ratings&lt;/font&gt;" style="ellipse;whiteSpace=wrap;html=1;" parent="1" vertex="1">
          <mxGeometry x="1440" y="-245" width="78" height="38" as="geometry" />
        </mxCell>
        <mxCell id="t2eCOnF7JoxN58FBNp2V-106" value="&lt;font style=&quot;&quot; face=&quot;Courier New&quot;&gt;Comment&lt;/font&gt;" style="ellipse;whiteSpace=wrap;html=1;" parent="1" vertex="1">
          <mxGeometry x="1418" y="-181" width="100" height="38" as="geometry" />
        </mxCell>
        <mxCell id="t2eCOnF7JoxN58FBNp2V-116" style="edgeStyle=orthogonalEdgeStyle;rounded=0;orthogonalLoop=1;jettySize=auto;html=1;entryX=0.996;entryY=0.674;entryDx=0;entryDy=0;entryPerimeter=0;fontSize=12;startSize=8;endSize=8;strokeColor=default;align=center;verticalAlign=middle;fontFamily=Helvetica;fontColor=default;labelBackgroundColor=default;elbow=vertical;startFill=0;endArrow=none;" parent="1" source="t2eCOnF7JoxN58FBNp2V-106" target="t2eCOnF7JoxN58FBNp2V-103" edge="1">
          <mxGeometry relative="1" as="geometry" />
        </mxCell>
        <mxCell id="t2eCOnF7JoxN58FBNp2V-119" style="edgeStyle=orthogonalEdgeStyle;rounded=0;orthogonalLoop=1;jettySize=auto;html=1;exitX=1;exitY=0.5;exitDx=0;exitDy=0;entryX=0.5;entryY=1;entryDx=0;entryDy=0;fontSize=12;startSize=8;endSize=8;strokeColor=default;align=center;verticalAlign=middle;fontFamily=Helvetica;fontColor=default;labelBackgroundColor=default;elbow=vertical;startFill=0;endArrow=none;" parent="1" source="t2eCOnF7JoxN58FBNp2V-117" target="t2eCOnF7JoxN58FBNp2V-103" edge="1">
          <mxGeometry relative="1" as="geometry" />
        </mxCell>
        <mxCell id="t2eCOnF7JoxN58FBNp2V-121" value="1 m" style="edgeLabel;html=1;align=center;verticalAlign=middle;resizable=0;points=[];fontSize=12;" parent="t2eCOnF7JoxN58FBNp2V-119" vertex="1" connectable="0">
          <mxGeometry x="0.8879" y="-1" relative="1" as="geometry">
            <mxPoint as="offset" />
          </mxGeometry>
        </mxCell>
        <mxCell id="t2eCOnF7JoxN58FBNp2V-117" value="&lt;font face=&quot;Courier New&quot;&gt;&lt;span style=&quot;font-size: 20px;&quot;&gt;Give&lt;/span&gt;&lt;/font&gt;" style="rhombus;whiteSpace=wrap;html=1;" parent="1" vertex="1">
          <mxGeometry x="1070" y="53" width="138" height="65" as="geometry" />
        </mxCell>
        <mxCell id="t2eCOnF7JoxN58FBNp2V-118" style="edgeStyle=orthogonalEdgeStyle;rounded=0;orthogonalLoop=1;jettySize=auto;html=1;exitX=1;exitY=0.25;exitDx=0;exitDy=0;entryX=0;entryY=0.5;entryDx=0;entryDy=0;fontSize=12;startSize=8;endSize=8;strokeColor=default;align=center;verticalAlign=middle;fontFamily=Helvetica;fontColor=default;labelBackgroundColor=default;elbow=vertical;startFill=0;endArrow=none;" parent="1" source="t2eCOnF7JoxN58FBNp2V-9" target="t2eCOnF7JoxN58FBNp2V-117" edge="1">
          <mxGeometry relative="1" as="geometry" />
        </mxCell>
        <mxCell id="t2eCOnF7JoxN58FBNp2V-120" value="1" style="edgeLabel;html=1;align=center;verticalAlign=middle;resizable=0;points=[];fontSize=12;" parent="t2eCOnF7JoxN58FBNp2V-118" vertex="1" connectable="0">
          <mxGeometry x="-0.8974" y="1" relative="1" as="geometry">
            <mxPoint as="offset" />
          </mxGeometry>
        </mxCell>
        <mxCell id="t2eCOnF7JoxN58FBNp2V-123" style="edgeStyle=orthogonalEdgeStyle;rounded=0;orthogonalLoop=1;jettySize=auto;html=1;entryX=0.5;entryY=1;entryDx=0;entryDy=0;fontSize=12;startSize=8;endSize=8;strokeColor=default;align=center;verticalAlign=middle;fontFamily=Helvetica;fontColor=default;labelBackgroundColor=default;elbow=vertical;startFill=0;endArrow=none;" parent="1" source="t2eCOnF7JoxN58FBNp2V-122" target="t2eCOnF7JoxN58FBNp2V-117" edge="1">
          <mxGeometry relative="1" as="geometry" />
        </mxCell>
        <mxCell id="t2eCOnF7JoxN58FBNp2V-122" value="&lt;font style=&quot;&quot; face=&quot;Courier New&quot;&gt;Date_of_review&lt;/font&gt;" style="ellipse;whiteSpace=wrap;html=1;" parent="1" vertex="1">
          <mxGeometry x="1060" y="167" width="158" height="37" as="geometry" />
        </mxCell>
        <mxCell id="t2eCOnF7JoxN58FBNp2V-126" style="edgeStyle=orthogonalEdgeStyle;rounded=0;orthogonalLoop=1;jettySize=auto;html=1;entryX=0.75;entryY=1;entryDx=0;entryDy=0;fontSize=12;startSize=8;endSize=8;strokeColor=default;align=center;verticalAlign=middle;fontFamily=Helvetica;fontColor=default;labelBackgroundColor=default;elbow=vertical;startFill=0;endArrow=none;" parent="1" source="t2eCOnF7JoxN58FBNp2V-124" target="t2eCOnF7JoxN58FBNp2V-16" edge="1">
          <mxGeometry relative="1" as="geometry" />
        </mxCell>
        <mxCell id="t2eCOnF7JoxN58FBNp2V-127" value="1" style="edgeLabel;html=1;align=center;verticalAlign=middle;resizable=0;points=[];fontSize=12;" parent="t2eCOnF7JoxN58FBNp2V-126" vertex="1" connectable="0">
          <mxGeometry x="0.9192" y="1" relative="1" as="geometry">
            <mxPoint as="offset" />
          </mxGeometry>
        </mxCell>
        <mxCell id="t2eCOnF7JoxN58FBNp2V-124" value="&lt;font face=&quot;Courier New&quot;&gt;&lt;span style=&quot;font-size: 20px;&quot;&gt;Has&lt;/span&gt;&lt;/font&gt;" style="rhombus;whiteSpace=wrap;html=1;rounded=0;strokeColor=default;align=center;verticalAlign=middle;fontFamily=Helvetica;fontSize=12;fontColor=default;labelBackgroundColor=default;" parent="1" vertex="1">
          <mxGeometry x="1230" y="-676" width="138" height="65" as="geometry" />
        </mxCell>
        <mxCell id="t2eCOnF7JoxN58FBNp2V-130" style="edgeStyle=orthogonalEdgeStyle;rounded=0;orthogonalLoop=1;jettySize=auto;html=1;entryX=0.5;entryY=0;entryDx=0;entryDy=0;fontSize=12;startSize=8;endSize=8;strokeColor=default;align=center;verticalAlign=middle;fontFamily=Helvetica;fontColor=default;labelBackgroundColor=default;elbow=vertical;startFill=0;endArrow=none;exitX=0.5;exitY=0;exitDx=0;exitDy=0;" parent="1" source="t2eCOnF7JoxN58FBNp2V-31" target="t2eCOnF7JoxN58FBNp2V-117" edge="1">
          <mxGeometry relative="1" as="geometry">
            <Array as="points">
              <mxPoint x="759" y="-234" />
              <mxPoint x="1139" y="-234" />
            </Array>
          </mxGeometry>
        </mxCell>
        <mxCell id="t2eCOnF7JoxN58FBNp2V-131" value="1" style="edgeLabel;html=1;align=center;verticalAlign=middle;resizable=0;points=[];fontSize=12;" parent="t2eCOnF7JoxN58FBNp2V-130" vertex="1" connectable="0">
          <mxGeometry x="-0.9366" relative="1" as="geometry">
            <mxPoint x="1" as="offset" />
          </mxGeometry>
        </mxCell>
      </root>
    </mxGraphModel>
  </diagram>
</mxfile>
